<svg width="32" height="33" viewBox="0 0 32 33" fill="none" xmlns="http://www.w3.org/2000/svg">
<path d="M24.3245 26.8597C22.0071 28.6124 19.1151 29.6921 16.0053 29.6921C8.45847 29.6921 2.31842 23.562 2.31842 16.0053C2.31842 8.44852 8.44852 2.31743 16.0053 2.31743C17.58 2.31743 19.0753 2.57492 20.4622 3.06008C20.67 2.25778 21.1352 1.56484 21.7795 1.07968C19.8975 0.35691 17.9956 0 16.0053 0C7.21972 0 0 7.20978 0 16.0053C0 24.8008 7.16106 32.0105 16.0053 32.0105C20.4622 32.0105 24.4826 30.2081 27.3946 27.2663H26.4441C25.7413 27.2464 24.9986 27.147 24.3245 26.8607V26.8597Z" fill="#191919"/>
<path d="M27.5228 4.93213C27.315 5.73443 26.8497 6.42737 26.2055 6.91253C28.3748 9.33932 29.6821 12.5276 29.6821 16.0341C29.6821 18.7383 28.9097 21.2436 27.5427 23.3731V27.1371C30.3254 24.2749 31.9996 20.3329 31.9996 16.055C32.0294 11.8954 30.3751 7.8739 27.5228 4.93312V4.93213Z" fill="#191919"/>
<path d="M26.3661 4.5249C26.6827 3.18359 25.852 1.83961 24.5107 1.52303C23.1694 1.20645 21.8254 2.03716 21.5088 3.37847C21.1922 4.71978 22.0229 6.06377 23.3643 6.38034C24.7056 6.69692 26.0495 5.86621 26.3661 4.5249Z" fill="#191919"/>
<path d="M16.1335 5.57617C10.4886 5.57617 5.8239 10.1911 5.8239 15.8858C5.8239 21.5804 10.4389 26.1954 16.1335 26.1954C18.5007 26.1954 20.6401 25.3732 22.373 24.056C23.2449 25.3434 24.7401 26.1954 26.4133 26.1954V15.8858C26.4133 12.2014 24.4528 8.95339 21.4911 7.12112C19.9462 6.09116 18.1338 5.57617 16.1335 5.57617ZM16.1335 21.2146C13.1719 21.2146 10.7461 18.7878 10.7461 15.8271C10.7461 12.8665 13.1729 10.4397 16.1335 10.4397C19.0942 10.4397 21.521 12.8665 21.521 15.8271C21.511 18.7987 19.1141 21.2146 16.1335 21.2146Z" fill="#191919"/>
</svg>
