<svg width="47" height="18" viewBox="0 0 47 18" fill="none" xmlns="http://www.w3.org/2000/svg">
<path d="M14.0276 9.66414H13.8068C13.8068 14.1768 8.91966 15.0889 8.91966 15.0889C8.59321 15.1465 8.26676 15.1849 7.94032 15.1945C5.95284 15.2809 4.04217 14.58 2.57316 13.2262C1.51701 12.2469 0.777709 11.0179 0.412857 9.65453C0.278438 9.13606 0.192026 8.58878 0.172823 8.0415C0.057607 8.56958 0 9.10726 0 9.65453C0 9.76015 -2.34422e-06 9.85616 0.00959901 9.96178C0.0960112 11.9493 0.950532 13.7927 2.40994 15.1465C3.39888 16.049 4.57984 16.6635 5.84722 16.942C6.47131 17.0764 7.1146 17.134 7.76749 17.1052C9.75498 17.0188 11.5984 16.1643 12.9522 14.7048C13.8548 13.7159 14.6421 12.5349 14.9205 11.2676C14.7477 10.7107 14.3348 10.1634 14.0276 9.66414Z" fill="#191919"/>
<path d="M4.79103 7.1967C5.44392 6.4862 6.34645 6.06374 7.31619 6.02533C9.30367 5.93892 11.2143 6.63982 12.6833 7.99361C13.221 8.48328 13.6723 9.04976 14.0371 9.65464H14.5172C14.162 8.29125 13.4226 7.06228 12.3569 6.08294C10.8879 4.72915 8.98682 4.03785 6.98974 4.11466C6.6537 4.12426 6.32725 4.16267 6.0104 4.22028C5.94319 4.28749 5.86638 4.3643 5.79917 4.43151C4.48379 5.86211 3.79249 7.70557 3.83089 9.64504C3.83089 8.74251 4.16694 7.87839 4.79103 7.1967Z" fill="#191919"/>
<path d="M14.9205 11.2781C14.9205 11.2781 14.6421 10.1835 14.5077 9.66504H14.0276C14.3348 10.1643 14.9205 11.2781 14.9205 11.2781Z" fill="#191919"/>
<path d="M5.0023 12.3324C4.2918 11.6795 3.86934 10.777 3.83094 9.80726C3.83094 9.75925 3.83094 9.71125 3.83094 9.65364C3.79253 7.71416 4.48383 5.8707 5.79922 4.4401C6.70174 3.45116 7.83471 2.75027 9.07328 2.36621C7.0858 2.45262 5.24234 3.30714 3.89815 4.76655C2.65957 6.12034 1.96828 7.83898 1.92987 9.65364C1.92987 9.80726 1.92987 9.97048 1.92987 10.1337C1.93947 10.4698 1.97788 10.7962 2.03548 11.113C2.10269 11.1803 2.1795 11.2475 2.24671 11.3147C3.71572 12.6685 5.61679 13.3598 7.61387 13.2829C6.64414 13.331 5.71281 12.9853 5.0023 12.3324Z" fill="#191919"/>
<path d="M13.0002 9.66283H11.0992C11.0992 10.575 10.7631 11.4487 10.139 12.1208C9.48613 12.8313 8.58361 13.2537 7.61387 13.2921C5.62639 13.3786 3.71572 12.6777 2.24671 11.3239C1.70904 10.8342 1.25777 10.2677 0.892923 9.66283C0.585679 9.15396 0.345645 8.61628 0.172821 8.0498C0.192024 8.59708 0.278436 9.14436 0.412855 9.66283C0.768105 11.0262 1.51701 12.2552 2.57316 13.2345C4.04217 14.5883 5.94323 15.2796 7.94031 15.2028C8.27636 15.1932 8.60281 15.1548 8.91965 15.0972C8.91965 15.0972 13.8067 14.1851 13.8067 9.67243H13.0002V9.66283Z" fill="#191919"/>
<path d="M7.15301 2.20402C5.16553 2.29044 3.32207 3.14496 1.96828 4.60436C1.06575 5.5933 0.45126 6.77427 0.172821 8.04164C0.345645 8.60812 0.585679 9.1458 0.892923 9.65467C1.20977 10.1827 1.59382 10.6724 2.03548 11.1141C1.97787 10.7876 1.93947 10.4612 1.92987 10.1347C1.92027 9.97152 1.92027 9.8179 1.92987 9.65467C1.96827 7.84002 2.65957 6.12138 3.89815 4.76759C5.25194 3.29858 7.0858 2.44406 9.07328 2.36725C8.44919 2.23283 7.8059 2.17522 7.15301 2.20402Z" fill="#191919"/>
<path d="M14.0276 9.66449C13.7107 9.13641 13.3267 8.64674 12.885 8.20508C12.9426 8.52192 12.981 8.85797 12.9906 9.18442C13.0002 9.34764 13.0002 9.50126 12.9906 9.66449C12.9906 9.66449 12.9906 11.4119 12.9906 13.3034C12.9906 15.5309 14.9109 16.9423 14.9109 16.9423V11.2775L14.0276 9.66449Z" fill="#191919"/>
<path d="M4.15735 12.5348C2.60193 11.8339 1.58419 10.6433 0.969701 9.66397C0.441626 8.82866 0.211192 8.14696 0.182388 8.06055C0.355213 8.62703 0.595247 9.1551 0.90249 9.66397C1.26734 10.2689 1.71861 10.8353 2.25628 11.325C3.72529 12.6788 5.62636 13.3701 7.62344 13.2933C7.91148 13.2837 8.18992 13.2357 8.45876 13.1589C7.41221 13.3413 5.924 13.3317 4.15735 12.5348Z" fill="#191919"/>
<path d="M11.7328 15.25C11.752 15.2788 11.7808 15.3076 11.7904 15.3364C11.7712 15.3076 11.752 15.2788 11.7328 15.25Z" fill="#191919"/>
<path d="M11.7233 15.2426C11.0896 14.3593 11.0896 13.1207 11.0896 13.1207V9.66423C11.0896 9.61623 11.0896 9.56822 11.0896 9.51061C11.08 9.22257 11.032 8.94413 10.9552 8.67529C11.0128 8.97293 11.032 9.29938 11.0416 9.66423C11.0416 9.66423 11.0416 11.7189 11.0416 13.1303C11.0416 14.1577 11.4928 14.9162 11.7233 15.2426Z" fill="#191919"/>
<path d="M11.7905 15.3384C11.8289 15.396 11.8577 15.4248 11.8577 15.4248C11.8385 15.3864 11.8193 15.3672 11.7905 15.3384Z" fill="#191919"/>
<path d="M14.9205 9.34639C14.8341 7.35891 13.9796 5.51545 12.5202 4.16166C11.5312 3.25914 10.3503 2.64465 9.0829 2.36621C7.93074 2.72146 6.88419 3.35515 6.01047 4.22887C6.32731 4.17127 6.66336 4.13286 6.98981 4.12326C8.97729 4.03685 10.888 4.73774 12.357 6.09154C13.4131 7.07087 14.1524 8.29985 14.5173 9.66324H14.9301C14.9205 9.55763 14.9205 9.45201 14.9205 9.34639Z" fill="#191919"/>
<path d="M14.9205 9.66406H14.5077C14.6421 10.1825 14.9205 11.2771 14.9205 11.2771C14.9205 11.2771 14.9205 10.2113 14.9205 9.66406Z" fill="#191919"/>
<path d="M4.5894 6.35192C5.89519 3.46191 8.87161 2.43456 9.06363 2.37695C7.82506 2.76101 6.7017 3.47151 5.79917 4.45085C4.48379 5.88145 3.79249 7.72491 3.83089 9.66438C3.83089 9.66438 3.9077 8.80986 3.92691 8.66584C4.00372 7.96494 4.20535 7.18723 4.5894 6.35192Z" fill="#191919"/>
<path d="M13.0002 13.3017C13.0002 11.4102 13.0002 9.66276 13.0002 9.66276C13.0002 9.49953 13.0002 9.34591 13.0002 9.18269C12.9906 8.84664 12.9522 8.52019 12.8946 8.20335C12.8274 8.13614 12.7506 8.05933 12.6834 7.99212C11.2144 6.63833 9.31329 5.94703 7.31621 6.02384C8.28594 5.98544 9.21728 6.32148 9.92778 6.98398C10.6383 7.63687 11.0607 8.5394 11.0991 9.50913C11.0991 9.55714 11.0991 9.60515 11.0991 9.66276V13.1192C11.0991 15.2315 12.8178 16.9502 14.9301 16.9502C14.9205 16.9406 13.0002 15.5292 13.0002 13.3017Z" fill="#191919"/>
<path d="M14.0276 9.6639C13.6627 9.05901 13.2115 8.49253 12.6738 8.00286C11.2048 6.64907 9.3037 5.95777 7.30662 6.03458C7.01858 6.04418 6.74014 6.09219 6.4713 6.169C7.50824 5.97697 8.99645 5.98658 10.7727 6.79309C12.3281 7.49399 13.3459 8.68456 13.9604 9.6639C14.4884 10.4992 14.8917 11.1809 14.9205 11.2673C14.7477 10.7008 14.3348 10.1632 14.0276 9.6639Z" fill="#191919"/>
<path d="M39.9499 9.66414H39.729C39.729 14.1768 34.8419 15.0889 34.8419 15.0889C34.5155 15.1465 34.1891 15.1849 33.8626 15.1945C31.8751 15.2809 29.9645 14.58 28.4954 13.2262C27.4393 12.2469 26.7 11.0179 26.3351 9.65453C26.2007 9.13606 26.1143 8.58878 26.0951 8.0415C25.9799 8.56958 25.9223 9.10726 25.9223 9.65453C25.9223 9.76015 25.9223 9.85616 25.9319 9.96178C26.0183 11.9493 26.8728 13.7927 28.3322 15.1465C29.3212 16.049 30.5021 16.6635 31.7695 16.942C32.3936 17.0764 33.0369 17.134 33.6898 17.1052C35.6773 17.0188 37.5207 16.1643 38.8745 14.7048C39.777 13.7159 40.5644 12.5349 40.8428 11.2676C40.67 10.7107 40.2571 10.1634 39.9499 9.66414Z" fill="#191919"/>
<path d="M30.7134 7.1967C31.3663 6.4862 32.2688 6.06374 33.2385 6.02533C35.226 5.93892 37.1367 6.63982 38.6057 7.99361C39.1434 8.48328 39.5946 9.04976 39.9595 9.65464H40.4395C40.0843 8.29125 39.345 7.06228 38.2792 6.08294C36.8102 4.72915 34.9092 4.03785 32.9121 4.11466C32.576 4.12426 32.2496 4.16267 31.9327 4.22028C31.8655 4.28749 31.7887 4.3643 31.7215 4.43151C30.4061 5.86211 29.7148 7.70557 29.7532 9.64504C29.7532 8.74251 30.0893 7.87839 30.7134 7.1967Z" fill="#191919"/>
<path d="M40.8428 11.2781C40.8428 11.2781 40.5644 10.1835 40.43 9.66504H39.9499C40.2571 10.1643 40.8428 11.2781 40.8428 11.2781Z" fill="#191919"/>
<path d="M30.9246 12.3324C30.2141 11.6795 29.7916 10.777 29.7532 9.80726C29.7532 9.75925 29.7532 9.71125 29.7532 9.65364C29.7148 7.71416 30.4061 5.8707 31.7215 4.4401C32.624 3.45116 33.757 2.75027 34.9956 2.36621C33.0081 2.45262 31.1646 3.30714 29.8204 4.76655C28.5819 6.12034 27.8906 7.83898 27.8522 9.65364C27.8522 9.80726 27.8522 9.97048 27.8522 10.1337C27.8618 10.4698 27.9002 10.7962 27.9578 11.113C28.025 11.1803 28.1018 11.2475 28.169 11.3147C29.638 12.6685 31.5391 13.3598 33.5362 13.2829C32.5664 13.331 31.6351 12.9853 30.9246 12.3324Z" fill="#191919"/>
<path d="M38.9225 9.66283H37.0214C37.0214 10.575 36.6854 11.4487 36.0613 12.1208C35.4084 12.8313 34.5059 13.2537 33.5361 13.2921C31.5487 13.3786 29.638 12.6777 28.169 11.3239C27.6313 10.8342 27.18 10.2677 26.8152 9.66283C26.508 9.15396 26.2679 8.61628 26.0951 8.0498C26.1143 8.59708 26.2007 9.14436 26.3351 9.66283C26.6904 11.0262 27.4393 12.2552 28.4954 13.2345C29.9644 14.5883 31.8655 15.2796 33.8626 15.2028C34.1986 15.1932 34.5251 15.1548 34.8419 15.0972C34.8419 15.0972 39.729 14.1851 39.729 9.67243H38.9225V9.66283Z" fill="#191919"/>
<path d="M33.0753 2.20402C31.0878 2.29044 29.2443 3.14496 27.8905 4.60436C26.988 5.5933 26.3735 6.77427 26.0951 8.04164C26.2679 8.60812 26.508 9.1458 26.8152 9.65467C27.132 10.1827 27.5161 10.6724 27.9578 11.1141C27.9001 10.7876 27.8617 10.4612 27.8521 10.1347C27.8425 9.97152 27.8425 9.8179 27.8521 9.65467C27.8905 7.84002 28.5818 6.12138 29.8204 4.76759C31.1742 3.29858 33.0081 2.44406 34.9956 2.36725C34.3715 2.23283 33.7282 2.17522 33.0753 2.20402Z" fill="#191919"/>
<path d="M39.9499 9.66449C39.633 9.13641 39.249 8.64674 38.8073 8.20508C38.8649 8.52192 38.9033 8.85797 38.9129 9.18442C38.9225 9.34764 38.9225 9.50126 38.9129 9.66449C38.9129 9.66449 38.9129 11.4119 38.9129 13.3034C38.9129 15.5309 40.8332 16.9423 40.8332 16.9423V11.2775L39.9499 9.66449Z" fill="#191919"/>
<path d="M30.0797 12.5348C28.5243 11.8339 27.5065 10.6433 26.892 9.66397C26.3639 8.82866 26.1335 8.14696 26.1047 8.06055C26.2775 8.62703 26.5176 9.1551 26.8248 9.66397C27.1897 10.2689 27.6409 10.8353 28.1786 11.325C29.6476 12.6788 31.5487 13.3701 33.5458 13.2933C33.8338 13.2837 34.1122 13.2357 34.3811 13.1589C33.3345 13.3413 31.8463 13.3317 30.0797 12.5348Z" fill="#191919"/>
<path d="M37.6551 15.25C37.6743 15.2788 37.7031 15.3076 37.7127 15.3364C37.6935 15.3076 37.6743 15.2788 37.6551 15.25Z" fill="#191919"/>
<path d="M37.6455 15.2426C37.0118 14.3593 37.0118 13.1207 37.0118 13.1207V9.66423C37.0118 9.61623 37.0118 9.56822 37.0118 9.51061C37.0022 9.22257 36.9542 8.94413 36.8774 8.67529C36.935 8.97293 36.9542 9.29938 36.9638 9.66423C36.9638 9.66423 36.9638 11.7189 36.9638 13.1303C36.9638 14.1577 37.4151 14.9162 37.6455 15.2426Z" fill="#191919"/>
<path d="M37.7128 15.3384C37.7512 15.396 37.78 15.4248 37.78 15.4248C37.7608 15.3864 37.7416 15.3672 37.7128 15.3384Z" fill="#191919"/>
<path d="M40.8428 9.34639C40.7564 7.35891 39.9019 5.51545 38.4424 4.16166C37.4535 3.25914 36.2725 2.64465 35.0052 2.36621C33.853 2.72146 32.8065 3.35515 31.9327 4.22887C32.2496 4.17127 32.5856 4.13286 32.9121 4.12326C34.8996 4.03685 36.8102 4.73774 38.2792 6.09154C39.3354 7.07087 40.0747 8.29985 40.4395 9.66324H40.8524C40.8428 9.55763 40.8428 9.45201 40.8428 9.34639Z" fill="#191919"/>
<path d="M40.8428 9.66406H40.4299C40.5644 10.1825 40.8428 11.2771 40.8428 11.2771C40.8428 11.2771 40.8428 10.2113 40.8428 9.66406Z" fill="#191919"/>
<path d="M30.5117 6.35192C31.8175 3.46191 34.7939 2.43456 34.986 2.37695C33.7474 2.76101 32.624 3.47151 31.7215 4.45085C30.4061 5.88145 29.7148 7.72491 29.7532 9.66438C29.7532 9.66438 29.83 8.80986 29.8492 8.66584C29.9261 7.96494 30.1277 7.18723 30.5117 6.35192Z" fill="#191919"/>
<path d="M38.9225 13.3017C38.9225 11.4102 38.9225 9.66276 38.9225 9.66276C38.9225 9.49953 38.9225 9.34591 38.9225 9.18269C38.9129 8.84664 38.8745 8.52019 38.8169 8.20335C38.7497 8.13614 38.6729 8.05933 38.6057 7.99212C37.1367 6.63833 35.2356 5.94703 33.2385 6.02384C34.2082 5.98544 35.1396 6.32148 35.8501 6.98398C36.5606 7.63687 36.983 8.5394 37.0214 9.50913C37.0214 9.55714 37.0214 9.60515 37.0214 9.66276V13.1192C37.0214 15.2315 38.7401 16.9502 40.8524 16.9502C40.8428 16.9406 38.9225 15.5292 38.9225 13.3017Z" fill="#191919"/>
<path d="M39.9499 9.6639C39.585 9.05901 39.1338 8.49253 38.5961 8.00286C37.1271 6.64907 35.226 5.95777 33.2289 6.03458C32.9409 6.04418 32.6625 6.09219 32.3936 6.169C33.4306 5.97697 34.9188 5.98658 36.695 6.79309C38.2504 7.49399 39.2682 8.68456 39.8827 9.6639C40.4107 10.4992 40.814 11.1809 40.8428 11.2673C40.67 10.7008 40.2571 10.1632 39.9499 9.6639Z" fill="#191919"/>
<path d="M21.1422 13.3031C20.5085 12.7175 20.1341 11.9205 20.0957 11.0564C20.0957 11.0084 20.0957 10.97 20.0957 10.922V3.74979C20.0957 1.86792 18.5691 0.341309 16.6872 0.341309C16.6872 0.341309 18.4058 1.60869 18.4058 3.58657C18.4058 5.2668 18.4058 10.9316 18.4058 10.9316C18.4058 11.0756 18.4058 11.21 18.4058 11.3541C18.4154 11.6517 18.4538 11.9397 18.5018 12.2278C18.5691 12.295 18.6267 12.3526 18.6939 12.4102C19.8652 13.4952 21.3535 14.1 22.9377 14.1577V14.1385C22.2656 14.052 21.6415 13.764 21.1422 13.3031Z" fill="#191919"/>
<path d="M18.4058 11.3428C18.3962 11.1988 18.3962 11.0548 18.4058 10.9204C18.4058 10.9204 18.4058 5.26517 18.4058 3.57533C18.4058 1.59746 16.6872 0.330078 16.6872 0.330078L16.7256 10.9204H17.4841C17.7625 11.3908 18.1082 11.8229 18.5018 12.2166C18.4442 11.9381 18.4154 11.6405 18.4058 11.3428Z" fill="#191919"/>
<path d="M24.4931 15.771C24.253 15.8094 24.0034 15.8286 23.7634 15.8382C23.6194 15.8478 23.4753 15.8478 23.3409 15.8382C23.2449 15.8382 23.1489 15.8286 23.0529 15.8286C23.0049 15.8286 22.9665 15.819 22.9185 15.819C22.8704 15.819 22.8128 15.8094 22.7648 15.8094C22.7072 15.7998 22.6496 15.7998 22.592 15.7902C22.5536 15.7902 22.5248 15.7806 22.4864 15.7806C22.4192 15.771 22.352 15.7614 22.2848 15.7422C22.2656 15.7422 22.2368 15.7326 22.2176 15.7326C22.1407 15.7134 22.0639 15.7038 21.9967 15.6846C21.9775 15.6846 21.9679 15.675 21.9487 15.675C21.8719 15.6558 21.7855 15.6366 21.7087 15.6174C21.6991 15.6174 21.6895 15.6174 21.6895 15.6078C21.6031 15.5886 21.5263 15.5598 21.4398 15.531H21.4302C21.3438 15.5022 21.2574 15.4733 21.171 15.4445C20.3741 15.1469 19.6348 14.6956 18.9915 14.11C18.0506 13.2458 17.3881 12.1513 17.0712 10.9415C16.8312 10.3846 16.6968 8.49316 16.6968 8.49316C16.6968 8.49316 16.7352 10.4518 16.7352 10.9415C16.7352 11.0279 16.7352 11.1239 16.7352 11.2103C16.812 12.9866 17.5417 14.6284 18.8475 15.8286C19.7212 16.6351 20.7774 17.1824 21.9103 17.432C22.0927 17.4704 22.4096 17.5472 22.64 17.5472C22.6976 17.5472 22.7552 17.5568 22.8128 17.5568C23.7442 17.5568 24.5027 16.7983 24.5027 15.867C24.4931 15.819 24.4931 15.7998 24.4931 15.771Z" fill="#191919"/>
<path d="M23.3313 14.2323C23.1873 14.1843 23.0337 14.1555 22.8801 14.1459C21.3246 14.0787 19.846 13.4642 18.6843 12.3984C18.2042 11.9568 17.801 11.4575 17.4841 10.9198C16.9656 10.1997 16.6872 8.11621 16.6872 8.11621C16.6872 8.11621 16.7064 9.95007 17.0616 10.9198C17.3785 12.1296 18.041 13.2241 18.9819 14.0883C19.6252 14.6835 20.3645 15.1252 21.1614 15.4228C21.8527 15.6821 22.5824 15.8261 23.3409 15.8357C23.485 15.8357 23.6194 15.8357 23.7634 15.8357C24.013 15.8261 24.2531 15.7973 24.4931 15.7685C24.4643 15.058 23.9842 14.4531 23.3313 14.2323Z" fill="#191919"/>
<path d="M21.2478 5.98622C23.2257 5.98622 24.4931 4.26758 24.4931 4.26758H16.6872V5.98622C18.1754 5.98622 20.3645 5.98622 21.2478 5.98622Z" fill="#191919"/>
<path d="M21.2478 5.98785C20.3645 5.98785 18.185 5.98785 16.6872 5.98785V7.68729H21.0846C21.1038 7.68729 21.123 7.68729 21.1422 7.68729C21.2862 7.67769 21.6799 7.65848 22.1216 7.52407C23.4946 7.0824 24.4931 5.79582 24.4931 4.27881C24.4931 4.27881 23.2257 5.98785 21.2478 5.98785Z" fill="#191919"/>
<path d="M23.0529 7.06152C23.0337 7.08073 23.0049 7.09993 22.9761 7.11913C23.0145 7.09993 23.0337 7.08073 23.0529 7.06152Z" fill="#191919"/>
<path d="M23.0529 7.062C23.1009 7.0236 23.1297 7.00439 23.1297 7.00439C23.1105 7.0236 23.0817 7.0428 23.0529 7.062Z" fill="#191919"/>
<path d="M22.8033 14.1285C22.112 14.0805 21.2862 13.8885 20.3837 13.4853C18.9915 12.8612 18.089 11.7954 17.5417 10.9217C17.0712 10.1824 16.764 8.94381 16.6872 7.68604C16.6872 9.13584 17.2153 10.48 17.4841 10.9217C17.8106 11.469 18.2138 11.9682 18.6939 12.4003C19.8748 13.4853 21.3631 14.0901 22.9473 14.1477C22.8033 14.1285 22.8705 14.1381 22.8033 14.1285Z" fill="#191919"/>
<path d="M42.9668 8.67236V16.4672C44.6069 15.2818 44.5988 13.3818 44.5988 13.3818V10.3044H43.73L42.9668 8.67236Z" fill="#191919"/>
<path d="M46.1973 13.2273V10.3042H44.5896V13.3816C44.5896 13.3816 44.6059 15.2897 42.9576 16.467C44.752 16.467 46.1973 15.0136 46.1973 13.2273Z" fill="#191919"/>
<path d="M46.1973 10.3046V7.23535V3.99561C46.1973 3.99561 44.5897 5.19732 44.5897 7.07296C44.5897 7.12168 44.5897 7.17852 44.5897 7.22723C44.5897 8.76997 44.5897 10.2965 44.5897 10.2965C44.5897 10.3777 44.5897 10.467 44.5897 10.5482V11.4332C44.6221 11.4657 44.6546 11.4982 44.679 11.5307C44.7358 11.5875 44.8008 11.6525 44.8576 11.7093C45.2636 12.0828 45.7183 12.3995 46.1892 12.6512L46.1973 10.3046Z" fill="#191919"/>
<path d="M42.9657 7.24534V8.47953C42.9657 8.47953 43.0469 9.1697 43.258 9.38893C43.461 9.89235 43.7208 10.3146 43.7208 10.3146C43.9644 10.7206 44.2567 11.1022 44.5897 11.4513V10.5663C44.5897 10.4851 44.5897 10.3958 44.5897 10.3146C44.5897 10.3146 44.5897 8.79619 44.5897 7.24534C44.5897 7.19662 44.5897 7.13978 44.5897 7.09106C44.5897 5.2073 46.1973 4.01371 46.1973 4.01371C44.411 4.00559 42.9657 5.45089 42.9657 7.24534Z" fill="#191919"/>
<path d="M45.6615 5.43343C45.6452 5.40907 45.6209 5.38471 45.6127 5.36035C45.629 5.38471 45.6452 5.40907 45.6615 5.43343Z" fill="#191919"/>
<path d="M45.6127 5.36019C45.5803 5.31147 45.5559 5.28711 45.5559 5.28711C45.5721 5.31959 45.5884 5.34395 45.6127 5.36019Z" fill="#191919"/>
<path d="M44.9713 0.0336914C44.7602 0.464034 44.614 0.975574 44.614 1.55207C44.614 1.60079 44.614 1.65763 44.614 1.70634C44.614 2.23412 44.614 2.7619 44.614 3.22472C45.4503 3.22472 46.1405 2.58327 46.2217 1.76318V1.69822V1.4384C46.1486 0.756344 45.6371 0.187965 44.9713 0.0336914Z" fill="#191919"/>
<path d="M44.6059 1.55898C44.6059 0.982481 44.7602 0.470941 44.9632 0.0405984C44.8495 0.0162393 44.7277 0 44.6059 0C43.7127 0 42.9901 0.72265 42.9901 1.61581C42.9901 2.50898 43.7127 3.23163 44.6059 3.23163C44.6059 2.76881 44.6059 2.24103 44.6059 1.71325C44.6059 1.65641 44.6059 1.6077 44.6059 1.55898Z" fill="#191919"/>
<path d="M45.0119 11.7734C43.6071 10.523 42.9657 8.83408 42.9657 8.44434C42.9657 9.32938 44.0375 10.9452 44.8657 11.7084C45.2717 12.0819 45.7264 12.3986 46.1973 12.6503C46.1973 12.6584 45.361 12.0819 45.0119 11.7734Z" fill="#191919"/>
</svg>
