<svg width="34" height="33" viewBox="0 0 34 33" fill="none" xmlns="http://www.w3.org/2000/svg">
<path d="M17.8029 1.03423L33.3329 6.01431L33.1779 6.47978L33.3344 6.0136C33.5977 6.09807 33.7411 6.37535 33.655 6.63268C33.5999 6.79699 33.4639 6.91389 33.3045 6.95452L17.7735 11.935L17.7739 11.9357C17.6579 11.9731 17.5375 11.9663 17.4321 11.9257L1.90204 6.94561L2.05705 6.48014L1.90058 6.94633C1.63725 6.86186 1.49391 6.58458 1.57999 6.32724C1.63506 6.16294 1.77111 6.04604 1.93049 6.00541L17.4615 1.02533L17.4611 1.02462C17.5771 0.987193 17.6975 0.993965 17.8029 1.0346V1.03423ZM31.5711 6.47982L17.6171 2.00512L3.66307 6.47982L17.6171 10.9545L31.5711 6.47982Z" fill="#191919" stroke="#191919" stroke-width="0.5"/>
<path d="M2.21938 25.9699C1.95751 25.8791 1.67193 26.0202 1.58221 26.2858C1.49249 26.551 1.63181 26.8403 1.89405 26.9311L17.455 32.3393V32.3397C17.5707 32.38 17.691 32.3748 17.7968 32.3338L33.341 26.9316C33.6028 26.8407 33.7425 26.5514 33.6528 26.2862C33.5631 26.021 33.2775 25.8795 33.0156 25.9704L17.618 31.322L2.22045 25.9704L2.21938 25.9699Z" fill="#191919" stroke="#191919" stroke-width="0.5"/>
<path d="M33.6787 6.41696C33.6787 6.13865 33.425 5.91309 33.1118 5.91309C32.7987 5.91309 32.5449 6.13865 32.5449 6.41696V26.5739C32.5449 26.8522 32.7987 27.0778 33.1118 27.0778C33.425 27.0778 33.6787 26.8522 33.6787 26.5739V6.41696Z" fill="#191919" stroke="#191919" stroke-width="0.5"/>
<path d="M2.01108 6.51463C2.01108 6.24872 1.78477 6.0332 1.50554 6.0332C1.22631 6.0332 1 6.24872 1 6.51463V25.7734C1 26.0393 1.22631 26.2548 1.50554 26.2548C1.78477 26.2548 2.01108 26.0393 2.01108 25.7734V6.51463Z" fill="#191919" stroke="#191919" stroke-width="0.5"/>
<path d="M18.1845 11.7034C18.1845 11.4282 17.9308 11.2051 17.6176 11.2051C17.3045 11.2051 17.0507 11.4282 17.0507 11.7034V31.8714C17.0507 32.1467 17.3045 32.3698 17.6176 32.3698C17.9308 32.3698 18.1845 32.1467 18.1845 31.8714V11.7034Z" fill="#191919" stroke="#191919" stroke-width="0.5"/>
<path d="M23.0787 9.44137L27.7635 7.83147L27.7632 7.83074C28.0138 7.7445 28.2838 7.88788 28.3657 8.15062C28.3828 8.20557 28.3904 8.26124 28.3893 8.31583V13.1405C28.3893 13.3734 28.2377 13.5692 28.0322 13.6252L23.3543 15.3363L23.3546 15.3377C23.1054 15.4287 22.833 15.2911 22.7462 15.0299C22.7267 14.972 22.7184 14.9127 22.7194 14.8548V9.92685C22.7194 9.69322 22.8718 9.49708 23.078 9.44177L23.0787 9.44137ZM27.4345 8.99668L23.6757 10.2885V14.1612L27.4345 12.7863V8.99668Z" fill="#191919"/>
<path d="M20.2578 28.1414L24.0454 26.7569V25.2561L20.2578 26.6407V28.1414ZM24.5159 27.1148L24.6684 27.5889L19.958 29.3109C19.905 29.3328 19.8476 29.3448 19.7874 29.3448C19.5275 29.3448 19.3169 29.1203 19.3169 28.8433V26.293C19.3128 26.0809 19.4362 25.8808 19.6349 25.8083L19.7877 26.2828L19.6352 25.8086L24.3456 24.0866C24.3986 24.0648 24.4561 24.0527 24.5163 24.0527C24.7761 24.0527 24.9868 24.2772 24.9868 24.5542V27.1046C24.9909 27.3167 24.8674 27.5168 24.6688 27.5893L24.5159 27.1148Z" fill="#191919"/>
<path d="M9.38967 3.93064C9.19637 3.86125 8.93364 4.10047 8.80278 4.465C8.67192 4.82954 8.72253 5.18124 8.91583 5.25063L23.0788 10.3348C23.2721 10.4042 23.5348 10.1649 23.6657 9.8004C23.7965 9.43586 23.7459 9.08416 23.5526 9.01477L9.38967 3.93064Z" fill="#191919"/>
</svg>
