<svg width="24" height="24" viewBox="0 0 24 24" fill="none" xmlns="http://www.w3.org/2000/svg">
<path d="M3.5147 3.51472C-1.1522 8.18162 -1.1522 15.8184 3.5147 20.4853C8.18161 25.1522 15.8184 25.1522 20.4853 20.4853C25.1522 15.8184 25.1522 8.18162 20.4853 3.51472C15.8184 -1.15219 8.18161 -1.15219 3.5147 3.51472ZM16.2426 9.87868L14.1213 12L16.2426 14.1213C16.826 14.7047 16.826 15.6593 16.2426 16.2426C15.6593 16.826 14.7047 16.826 14.1213 16.2426L12 14.1213L9.87866 16.2426C9.2953 16.826 8.3407 16.826 7.75734 16.2426C7.17398 15.6593 7.17398 14.7047 7.75734 14.1213L9.87866 12L7.75734 9.87868C7.17398 9.29532 7.17398 8.34072 7.75734 7.75736C8.3407 7.174 9.2953 7.174 9.87866 7.75736L12 9.87868L14.1213 7.75736C14.7047 7.174 15.6593 7.174 16.2426 7.75736C16.826 8.34072 16.826 9.29532 16.2426 9.87868Z" fill="#757575"/>
</svg>
