<svg width="182" height="197" viewBox="0 0 182 197" fill="none" xmlns="http://www.w3.org/2000/svg">
<path d="M78.3099 114.164C79.1802 112.856 78.6651 110.983 77.1594 109.982C75.6538 108.98 73.7278 109.228 72.8575 110.536C71.9873 111.844 72.5023 113.717 74.008 114.719C75.5136 115.72 77.4397 115.472 78.3099 114.164Z" fill="#F2F2F2"/>
<path d="M60.6443 65.3431C61.5146 64.035 60.9995 62.1626 59.4939 61.1609C57.9882 60.1592 56.0622 60.4075 55.1919 61.7155C54.3217 63.0236 54.8368 64.896 56.3424 65.8978C57.848 66.8995 59.7741 66.6511 60.6443 65.3431Z" fill="#F2F2F2"/>
<path d="M134.519 140.502C135.389 139.194 134.874 137.322 133.368 136.32C131.862 135.318 129.936 135.567 129.066 136.875C128.196 138.183 128.711 140.055 130.217 141.057C131.722 142.059 133.648 141.81 134.519 140.502Z" fill="#F2F2F2"/>
<path d="M7.02816 21.4134C7.89841 20.1054 7.38332 18.2329 5.87767 17.2312C4.37202 16.2295 2.44597 16.4778 1.57572 17.7859C0.705474 19.0939 1.22057 20.9663 2.72622 21.9681C4.23187 22.9698 6.15791 22.7215 7.02816 21.4134Z" fill="#F2F2F2"/>
<path d="M76.7269 5.99591C77.5971 4.68787 77.0821 2.81544 75.5764 1.81372C74.0708 0.812009 72.1447 1.06033 71.2745 2.36838C70.4042 3.67642 70.9193 5.54887 72.4249 6.55058C73.9306 7.5523 75.8567 7.30396 76.7269 5.99591Z" fill="#F2F2F2"/>
<path d="M21.8763 97.3709C22.7466 96.0629 22.2315 94.1905 20.7258 93.1887C19.2202 92.187 17.2941 92.4354 16.4239 93.7434C15.5536 95.0514 16.0687 96.9239 17.5744 97.9256C19.08 98.9273 21.0061 98.679 21.8763 97.3709Z" fill="#E6E6E6"/>
<path d="M31.3846 75.9488C29.8909 75.9445 28.4511 75.3915 27.3406 74.3956C26.2301 73.3997 25.5267 72.0308 25.3649 70.5505L21.8982 38.4536C21.7279 36.86 22.1986 35.2641 23.2071 34.0161C24.2157 32.768 25.6796 31.9697 27.2778 31.7964L130.211 20.7475C131.81 20.5776 133.41 21.0468 134.662 22.0522C135.914 23.0576 136.715 24.5171 136.889 26.1103L140.356 58.207C140.526 59.8007 140.055 61.3966 139.047 62.6447C138.038 63.8928 136.574 64.6911 134.976 64.8645L32.0428 75.9134C31.8242 75.9369 31.6045 75.9487 31.3846 75.9488Z" fill="#E6E6E6"/>
<path d="M129.219 22.4395C129.026 22.4395 128.833 22.4499 128.641 22.4705L29.4826 33.1098C28.7892 33.1841 28.1174 33.3939 27.5054 33.727C26.8934 34.0602 26.3532 34.5101 25.9158 35.0513C25.4783 35.5925 25.1521 36.2142 24.9557 36.881C24.7593 37.5477 24.6967 38.2465 24.7714 38.9375L26.523 55.1487C26.8062 57.7694 27.6046 60.3089 28.8726 62.6222C30.1406 64.9355 31.8535 66.9772 33.9134 68.6308C35.9733 70.2844 38.3399 71.5176 40.878 72.2598C43.4162 73.002 46.0761 73.2387 48.7061 72.9565L118.431 65.4753C121.053 65.194 123.593 64.4008 125.908 63.1411C128.222 61.8813 130.265 60.1796 131.919 58.1332C133.574 56.0868 134.807 53.7357 135.55 51.2141C136.292 48.6926 136.529 46.05 136.247 43.4372L134.489 27.1652C134.349 25.8691 133.733 24.6701 132.761 23.798C131.789 22.926 130.527 22.4422 129.219 22.4395Z" fill="white"/>
<path d="M52.5939 63.2908C57.5482 63.2908 61.5644 59.2745 61.5644 54.3202C61.5644 49.3659 57.5482 45.3496 52.5939 45.3496C47.6396 45.3496 43.6233 49.3659 43.6233 54.3202C43.6233 59.2745 47.6396 63.2908 52.5939 63.2908Z" fill="#E4E4E4"/>
<path d="M56.319 53.5665H53.269V50.5165C53.269 50.3262 53.1934 50.1436 53.0588 50.009C52.9242 49.8744 52.7416 49.7988 52.5513 49.7988C52.3609 49.7988 52.1784 49.8744 52.0438 50.009C51.9092 50.1436 51.8336 50.3262 51.8336 50.5165V53.5665H48.7836C48.5933 53.5665 48.4107 53.6421 48.2761 53.7767C48.1415 53.9113 48.0659 54.0939 48.0659 54.2842C48.0659 54.4745 48.1415 54.6571 48.2761 54.7917C48.4107 54.9263 48.5933 55.0019 48.7836 55.0019H51.8336V58.0519C51.8336 58.2422 51.9092 58.4248 52.0438 58.5594C52.1784 58.694 52.3609 58.7696 52.5513 58.7696C52.7416 58.7696 52.9242 58.694 53.0588 58.5594C53.1934 58.4248 53.269 58.2422 53.269 58.0519V55.0019H56.319C56.5093 55.0019 56.6919 54.9263 56.8264 54.7917C56.961 54.6571 57.0367 54.4745 57.0367 54.2842C57.0367 54.0939 56.961 53.9113 56.8264 53.7767C56.6919 53.6421 56.5093 53.5665 56.319 53.5665Z" fill="white"/>
<path d="M124.777 37.3491L70.2451 47.4626C70.0892 47.4918 69.9291 47.4888 69.774 47.454C69.6189 47.4191 69.4718 47.3531 69.3412 47.2595C69.2105 47.166 69.0989 47.0469 69.0126 46.909C68.9263 46.771 68.8671 46.617 68.8384 46.4557C68.8097 46.2944 68.8119 46.1289 68.8451 45.9689C68.8783 45.8088 68.9417 45.6572 69.0318 45.5227C69.1218 45.3883 69.2367 45.2736 69.3699 45.1853C69.503 45.097 69.6519 45.0367 69.8078 45.008L124.34 34.8945C124.495 34.8654 124.656 34.8683 124.811 34.9032C124.966 34.938 125.113 35.0041 125.244 35.0976C125.374 35.1912 125.486 35.3103 125.572 35.4482C125.658 35.5861 125.718 35.7402 125.746 35.9015C125.775 36.0628 125.773 36.2282 125.74 36.3883C125.706 36.5484 125.643 36.7 125.553 36.8345C125.463 36.9689 125.348 37.0836 125.215 37.1719C125.082 37.2602 124.933 37.3204 124.777 37.3491Z" fill="#BDBDBD"/>
<path d="M125.882 44.602L71.3177 54.308C71.0029 54.364 70.6785 54.2971 70.416 54.122C70.1534 53.9469 69.9743 53.6779 69.9179 53.3743C69.8615 53.0706 69.9325 52.7572 70.1152 52.5029C70.298 52.2485 70.5776 52.0742 70.8924 52.0182L125.457 42.3122C125.772 42.2562 126.096 42.3231 126.359 42.4982C126.621 42.6733 126.8 42.9423 126.857 43.2459C126.913 43.5496 126.842 43.863 126.659 44.1174C126.477 44.3717 126.197 44.546 125.882 44.602Z" fill="#BDBDBD"/>
<path d="M79.1161 60.5985L72.4889 61.7225C72.1608 61.7782 71.8235 61.7158 71.5511 61.5491C71.2788 61.3824 71.0939 61.1251 71.0369 60.8336C70.98 60.5422 71.0558 60.2406 71.2475 59.9952C71.4393 59.7498 71.7314 59.5807 72.0596 59.525L78.6868 58.4009C78.8493 58.3732 79.016 58.3741 79.177 58.4037C79.3381 58.4334 79.4905 58.4911 79.6255 58.5737C79.7605 58.6562 79.8755 58.7619 79.9639 58.8847C80.0522 59.0076 80.1122 59.1451 80.1404 59.2895C80.1687 59.434 80.1645 59.5824 80.1283 59.7264C80.0921 59.8703 80.0245 60.007 79.9293 60.1286C79.8342 60.2501 79.7134 60.3542 79.5739 60.4348C79.4343 60.5155 79.2788 60.5711 79.1161 60.5985Z" fill="#BDBDBD"/>
<path d="M29.3438 39.7004C30.6149 39.7004 31.6453 38.7988 31.6453 37.6866C31.6453 36.5745 30.6149 35.6729 29.3438 35.6729C28.0728 35.6729 27.0424 36.5745 27.0424 37.6866C27.0424 38.7988 28.0728 39.7004 29.3438 39.7004Z" fill="#3F3D56"/>
<path d="M126.869 28.7683C127.981 28.7683 128.883 27.8667 128.883 26.7545C128.883 25.6423 127.981 24.7407 126.869 24.7407C125.757 24.7407 124.855 25.6423 124.855 26.7545C124.855 27.8667 125.757 28.7683 126.869 28.7683Z" fill="#3F3D56"/>
<path d="M97.263 73.7894C97.0568 73.6154 96.8936 73.3993 96.7851 73.157C96.6767 72.9147 96.6257 72.6522 96.636 72.3885C96.7486 69.2555 96.212 66.1322 95.0574 63.2005C94.9595 62.9541 94.92 62.6898 94.9416 62.4268C94.9632 62.1638 95.0455 61.9087 95.1825 61.6802C95.3138 61.4605 95.4935 61.2711 95.709 61.1253C95.9245 60.9795 96.1705 60.8809 96.4299 60.8363C99.0372 59.3233 101.71 58.8986 104.376 59.5741C104.806 59.5132 105.244 59.6017 105.612 59.8237C105.98 60.0456 106.254 60.3864 106.384 60.785C107.463 64.1542 108.064 67.6484 108.169 71.1724C108.179 71.5952 108.03 72.0072 107.749 72.3329C107.469 72.6586 107.076 72.876 106.642 72.9453L98.7535 74.1985C98.4891 74.241 98.2181 74.2264 97.9603 74.1556C97.7024 74.0849 97.4642 73.9598 97.263 73.7894Z" fill="#BDBDBD"/>
<path d="M98.2633 64.4366L104.391 63.4596C104.442 63.4517 104.49 63.4343 104.533 63.4083C104.577 63.3824 104.614 63.3484 104.644 63.3084C104.674 63.2684 104.695 63.2231 104.707 63.1752C104.719 63.1272 104.72 63.0775 104.712 63.0289C104.704 62.9803 104.685 62.9337 104.658 62.8919C104.631 62.8501 104.596 62.8138 104.555 62.7852C104.513 62.7565 104.466 62.7361 104.416 62.725C104.367 62.7139 104.315 62.7123 104.265 62.7205L98.1367 63.6974C98.0353 63.7138 97.9448 63.7683 97.8851 63.849C97.8253 63.9297 97.8011 64.03 97.8179 64.1279C97.8346 64.2258 97.8909 64.3132 97.9744 64.3711C98.0579 64.429 98.1618 64.4525 98.2633 64.4366Z" fill="white"/>
<path d="M98.8404 67.8884L104.968 66.9116C105.069 66.8954 105.16 66.8409 105.22 66.7602C105.28 66.6794 105.304 66.579 105.287 66.481C105.271 66.383 105.214 66.2954 105.13 66.2376C105.047 66.1797 104.943 66.1563 104.841 66.1725L98.7138 67.1493C98.6634 67.1573 98.6152 67.1747 98.5718 67.2006C98.5284 67.2266 98.4907 67.2605 98.4609 67.3005C98.4312 67.3405 98.4099 67.3858 98.3982 67.4338C98.3866 67.4818 98.3849 67.5315 98.3933 67.5801C98.4016 67.6287 98.4197 67.6752 98.4467 67.717C98.4737 67.7589 98.509 67.7951 98.5505 67.8238C98.592 67.8524 98.639 67.8729 98.6888 67.884C98.7385 67.8951 98.79 67.8966 98.8404 67.8884Z" fill="white"/>
<path d="M99.4149 70.765L105.543 69.7881C105.644 69.7719 105.735 69.7175 105.795 69.6367C105.855 69.5559 105.879 69.4555 105.863 69.3575C105.846 69.2595 105.789 69.1719 105.706 69.114C105.622 69.0562 105.518 69.0328 105.416 69.049L99.2883 70.0259C99.238 70.0339 99.1899 70.0514 99.1466 70.0774C99.1033 70.1034 99.0657 70.1373 99.036 70.1773C99.0063 70.2173 98.9851 70.2625 98.9735 70.3104C98.962 70.3583 98.9603 70.408 98.9686 70.4565C98.9769 70.5051 98.995 70.5515 99.022 70.5933C99.0489 70.6351 99.0841 70.6713 99.1255 70.7C99.167 70.7286 99.2138 70.7491 99.2635 70.7603C99.3131 70.7714 99.3646 70.7731 99.4149 70.765Z" fill="white"/>
<path d="M129.811 166.569C131.012 156.909 136.999 147.39 146.213 144.246C142.579 154.19 142.58 165.098 146.215 175.041C147.631 178.871 149.604 182.982 148.272 186.842C147.444 189.244 145.417 191.081 143.151 192.23C140.885 193.379 138.37 193.926 135.887 194.463L135.399 194.867C131.457 185.966 128.609 176.23 129.811 166.569Z" fill="#BDBDBD"/>
<path d="M146.304 144.429C140.938 150.44 137.604 157.99 136.773 166.005C136.564 167.727 136.627 169.472 136.961 171.174C137.34 172.822 138.153 174.339 139.316 175.566C140.378 176.732 141.598 177.802 142.358 179.206C142.736 179.931 142.957 180.727 143.005 181.543C143.054 182.358 142.93 183.175 142.641 183.94C141.971 185.863 140.649 187.43 139.303 188.918C137.809 190.571 136.231 192.263 135.596 194.454C135.519 194.719 135.112 194.584 135.188 194.319C136.293 190.508 139.993 188.343 141.757 184.911C142.58 183.309 142.926 181.45 142.154 179.759C141.479 178.281 140.221 177.176 139.136 176.005C137.984 174.824 137.139 173.379 136.674 171.796C136.254 170.116 136.124 168.377 136.288 166.653C136.595 162.766 137.512 158.952 139.004 155.35C140.685 151.23 143.057 147.427 146.02 144.107C146.203 143.901 146.486 144.224 146.304 144.429Z" fill="white"/>
<path d="M136.889 163.409C135.563 163.087 134.395 162.304 133.593 161.201C132.791 160.097 132.407 158.744 132.51 157.384C132.532 157.108 132.961 157.129 132.939 157.405C132.84 158.672 133.198 159.932 133.947 160.958C134.696 161.984 135.787 162.709 137.023 163.002C137.292 163.065 137.156 163.472 136.889 163.409Z" fill="white"/>
<path d="M138.7 175.046C141.095 173.616 142.862 171.337 143.651 168.661C143.729 168.396 144.136 168.531 144.058 168.796C143.233 171.578 141.388 173.947 138.893 175.429C138.655 175.571 138.463 175.187 138.7 175.046Z" fill="white"/>
<path d="M141.083 151.636C141.57 151.868 142.107 151.974 142.645 151.947C143.184 151.92 143.707 151.759 144.168 151.48C144.404 151.335 144.596 151.72 144.361 151.863C143.85 152.169 143.272 152.346 142.677 152.378C142.082 152.409 141.489 152.294 140.948 152.044C140.895 152.024 140.852 151.985 140.826 151.935C140.801 151.885 140.796 151.827 140.812 151.773C140.83 151.719 140.868 151.674 140.919 151.649C140.97 151.623 141.029 151.619 141.083 151.636Z" fill="white"/>
<path d="M174.296 161.501C174.151 161.595 174.007 161.69 173.862 161.787C171.921 163.063 170.088 164.495 168.379 166.068C168.245 166.187 168.111 166.31 167.981 166.433C163.905 170.267 160.576 174.823 158.164 179.872C157.206 181.881 156.402 183.961 155.759 186.093C154.872 189.037 154.144 192.3 152.388 194.708C152.208 194.961 152.012 195.203 151.801 195.432H135.929C135.893 195.414 135.857 195.399 135.821 195.381L135.187 195.41C135.213 195.298 135.241 195.182 135.267 195.07C135.281 195.005 135.299 194.94 135.314 194.874C135.325 194.831 135.336 194.787 135.343 194.748C135.347 194.733 135.35 194.719 135.354 194.708C135.361 194.668 135.372 194.632 135.379 194.596C135.539 193.947 135.703 193.299 135.872 192.651C135.872 192.647 135.872 192.647 135.875 192.644C137.175 187.708 138.899 182.837 141.307 178.383C141.38 178.249 141.452 178.112 141.532 177.978C142.628 175.976 143.887 174.067 145.294 172.271C146.068 171.289 146.891 170.348 147.76 169.45C150.01 167.134 152.611 165.186 155.466 163.678C161.159 160.672 167.749 159.521 173.833 161.356C173.988 161.404 174.141 161.451 174.296 161.501Z" fill="#BDBDBD"/>
<path d="M174.261 161.703C166.357 163.273 159.149 167.293 153.66 173.192C152.456 174.441 151.457 175.873 150.698 177.433C150.008 178.977 149.744 180.677 149.934 182.357C150.08 183.928 150.41 185.517 150.171 187.095C150.037 187.901 149.734 188.67 149.282 189.351C148.83 190.031 148.239 190.609 147.548 191.045C145.854 192.177 143.855 192.633 141.885 193.011C139.697 193.43 137.418 193.832 135.592 195.198C135.371 195.364 135.127 195.011 135.348 194.845C138.525 192.468 142.782 192.967 146.257 191.288C147.879 190.505 149.274 189.229 149.676 187.414C150.027 185.827 149.688 184.188 149.527 182.599C149.318 180.963 149.512 179.3 150.094 177.756C150.771 176.162 151.714 174.695 152.883 173.418C155.468 170.499 158.496 168.006 161.857 166.028C165.679 163.75 169.863 162.142 174.228 161.275C174.498 161.222 174.529 161.65 174.261 161.703Z" fill="white"/>
<path d="M155.316 171.188C154.451 170.133 153.99 168.805 154.014 167.44C154.038 166.076 154.546 164.765 155.448 163.741C155.631 163.535 155.96 163.81 155.777 164.016C154.936 164.968 154.462 166.19 154.443 167.46C154.423 168.73 154.857 169.966 155.669 170.944C155.845 171.156 155.491 171.4 155.316 171.188Z" fill="white"/>
<path d="M149.756 181.571C152.528 181.871 155.312 181.115 157.553 179.454C157.774 179.289 158.018 179.642 157.797 179.807C155.463 181.531 152.564 182.312 149.679 181.993C149.404 181.963 149.482 181.541 149.756 181.571Z" fill="white"/>
<path d="M165.752 164.314C166.002 164.792 166.366 165.201 166.813 165.503C167.259 165.806 167.774 165.992 168.31 166.047C168.585 166.074 168.507 166.496 168.233 166.469C167.641 166.406 167.073 166.199 166.579 165.866C166.085 165.533 165.68 165.084 165.399 164.558C165.369 164.511 165.357 164.454 165.368 164.398C165.378 164.343 165.408 164.293 165.454 164.26C165.501 164.228 165.558 164.215 165.614 164.226C165.67 164.236 165.72 164.268 165.752 164.314Z" fill="white"/>
<path d="M78.5478 117.797C78.8762 117.457 79.1262 117.05 79.2802 116.604C79.4342 116.158 79.4885 115.683 79.4392 115.213C79.3898 114.744 79.2382 114.291 78.9948 113.886C78.7515 113.481 78.4224 113.135 78.0307 112.871L80.9649 101.775L75.3117 103.676L73.392 113.922C72.9926 114.61 72.8593 115.42 73.0172 116.199C73.1752 116.978 73.6134 117.672 74.2489 118.15C74.8845 118.627 75.6731 118.855 76.4654 118.79C77.2577 118.725 77.9987 118.372 78.5478 117.797Z" fill="#9E616A"/>
<path d="M104.703 192.33L100.766 192.33L98.8924 177.141L104.704 177.141L104.703 192.33Z" fill="#9E616A"/>
<path d="M105.708 196.147L93.0107 196.147V195.986C93.0108 194.676 93.5315 193.419 94.4583 192.492C95.3851 191.565 96.6421 191.045 97.9527 191.044L105.708 191.045L105.708 196.147Z" fill="#2F2E41"/>
<path d="M86.0742 192.33L82.1364 192.33L80.2632 177.141L86.0749 177.141L86.0742 192.33Z" fill="#9E616A"/>
<path d="M87.0785 196.147L74.3816 196.147V195.986C74.3817 194.676 74.9024 193.419 75.8291 192.492C76.7559 191.565 78.0129 191.045 79.3236 191.044L87.0788 191.045L87.0785 196.147Z" fill="#2F2E41"/>
<path d="M83.8842 100.816L82.3727 101.234C82.3727 101.234 78.424 126.833 78.1028 140.323C77.7816 153.813 79.0663 187.859 79.0663 187.859H87.4173L94.1624 130.045L97.3743 187.859H106.368C106.368 187.859 112.792 112.058 109.901 105.955C107.01 99.8527 83.8842 100.816 83.8842 100.816Z" fill="#858585"/>
<path d="M95.9313 55.6452C100.099 55.6452 103.477 52.2669 103.477 48.0995C103.477 43.9321 100.099 40.5537 95.9313 40.5537C91.7639 40.5537 88.3856 43.9321 88.3856 48.0995C88.3856 52.2669 91.7639 55.6452 95.9313 55.6452Z" fill="#9E616A"/>
<path d="M115.04 65.4851L103.328 57.8311L91.1913 58.309L79.3875 64.8427L83.8842 89.8957L81.957 104.349C81.957 104.349 99.3014 102.422 103.156 105.313C105.407 107.028 108.062 108.134 110.864 108.525L110.222 83.793L115.04 65.4851Z" fill="#BDBDBD"/>
<path d="M81.6358 64.5209L80.4224 64.269L79.3875 64.842C79.3875 64.842 76.4968 68.6964 76.4968 72.2295C76.4968 75.7626 72.9637 109.809 72.9637 109.809L79.3875 112.7L84.5266 86.0407L81.6358 64.5209Z" fill="#BDBDBD"/>
<path d="M102.539 42.5674C102.539 42.5674 104.513 38.7946 100.171 38.4516C100.171 38.4516 96.4695 35.0938 92.6967 37.8377C92.6967 37.8377 90.6387 37.8377 89.5134 40.1665C89.5134 40.1665 87.8948 39.5527 87.5391 41.1955C87.5391 41.1955 86.3548 44.6254 87.5391 47.7123C88.7235 50.7992 89.1169 51.1421 89.1169 51.1421C89.1169 51.1421 87.1708 44.6703 91.9078 44.3273C96.6448 43.9843 101.946 41.024 102.34 44.7969C102.735 48.5697 103.329 49.4993 103.329 49.4993C103.329 49.4993 107.079 44.1109 102.539 42.5674Z" fill="#2F2E41"/>
<path d="M130.285 148.902L104.198 125.68L121.721 105.995L147.809 129.217L130.285 148.902Z" fill="white"/>
<path d="M130.285 148.902L104.198 125.68L121.721 105.995L147.809 129.217L130.285 148.902ZM105.105 125.628L130.233 147.996L146.902 129.27L121.774 106.902L105.105 125.628Z" fill="#E6E6E6"/>
<path d="M120.389 114.419L119.249 115.7L138.455 132.796L139.595 131.516L120.389 114.419Z" fill="#E4E4E4"/>
<path d="M116.97 118.26L115.83 119.541L135.036 136.637L136.176 135.356L116.97 118.26Z" fill="#E4E4E4"/>
<path d="M113.551 122.101L112.411 123.382L131.617 140.478L132.757 139.198L113.551 122.101Z" fill="#E4E4E4"/>
<path d="M180.993 196.493H26.7264C26.6252 196.493 26.5282 196.452 26.4567 196.38C26.3852 196.309 26.3451 196.212 26.3451 196.11C26.3451 196.009 26.3852 195.912 26.4567 195.84C26.5282 195.769 26.6252 195.728 26.7264 195.728H180.993C181.095 195.728 181.192 195.768 181.264 195.84C181.335 195.912 181.376 196.009 181.376 196.11C181.376 196.212 181.335 196.309 181.264 196.381C181.192 196.453 181.095 196.493 180.993 196.493Z" fill="#CACACA"/>
<path d="M39.703 147.341L60.9768 154.163L60.7644 154.801L60.9788 154.162C61.3395 154.278 61.5358 154.658 61.4179 155.01C61.3425 155.235 61.1561 155.396 60.9378 155.451L39.6627 162.274L39.6632 162.275C39.5043 162.326 39.3395 162.317 39.1951 162.261L17.9213 155.439L18.1336 154.801L17.9193 155.44C17.5585 155.324 17.3622 154.944 17.4801 154.592C17.5555 154.367 17.7419 154.207 17.9602 154.151L39.2353 147.329L39.2348 147.328C39.3937 147.277 39.5586 147.286 39.703 147.342V147.341ZM58.5633 154.801L39.4484 148.671L20.3336 154.801L39.4484 160.931L58.5633 154.801Z" fill="#BDBDBD"/>
<path d="M18.356 181.5C17.9973 181.375 17.6061 181.568 17.4832 181.932C17.3603 182.296 17.5512 182.692 17.9104 182.816L39.2265 190.225V190.225C39.3849 190.28 39.5498 190.273 39.6947 190.217L60.9878 182.817C61.3466 182.692 61.5379 182.296 61.415 181.933C61.2921 181.57 60.9009 181.376 60.5422 181.5L39.4498 188.831L18.3575 181.5L18.356 181.5Z" fill="#BDBDBD"/>
<path d="M61.4506 154.716C61.4506 154.334 61.103 154.025 60.674 154.025C60.2451 154.025 59.8975 154.334 59.8975 154.716V182.328C59.8975 182.709 60.2451 183.018 60.674 183.018C61.103 183.018 61.4506 182.709 61.4506 182.328V154.716Z" fill="#BDBDBD"/>
<path d="M18.0707 154.849C18.0707 154.485 17.7607 154.19 17.3782 154.19C16.9957 154.19 16.6857 154.485 16.6857 154.849V181.231C16.6857 181.595 16.9957 181.89 17.3782 181.89C17.7607 181.89 18.0707 181.595 18.0707 181.231V154.849Z" fill="#BDBDBD"/>
<path d="M40.2259 161.955C40.2259 161.578 39.8782 161.272 39.4493 161.272C39.0204 161.272 38.6727 161.578 38.6727 161.955V189.582C38.6727 189.959 39.0204 190.265 39.4493 190.265C39.8782 190.265 40.2259 189.959 40.2259 189.582V161.955Z" fill="#BDBDBD"/>
<path d="M46.9301 158.857L53.3475 156.652L53.3471 156.651C53.6904 156.532 54.0603 156.729 54.1725 157.089C54.1958 157.164 54.2062 157.24 54.2048 157.315V163.924C54.2048 164.243 53.997 164.511 53.7156 164.588L47.3076 166.932L47.308 166.934C46.9667 167.059 46.5934 166.87 46.4745 166.512C46.4479 166.433 46.4365 166.352 46.4379 166.272V159.522C46.4379 159.202 46.6466 158.933 46.9291 158.857L46.9301 158.857ZM52.8968 158.248L47.7479 160.017V165.322L52.8968 163.439V158.248Z" fill="#BDBDBD"/>
<path d="M43.0659 184.473L48.2544 182.577V180.521L43.0659 182.418V184.473ZM48.8989 183.067L49.1078 183.717L42.6552 186.075C42.5826 186.105 42.5039 186.122 42.4215 186.122C42.0655 186.122 41.777 185.814 41.777 185.435V181.941C41.7714 181.651 41.9405 181.377 42.2126 181.277L42.422 181.927L42.2131 181.278L48.6656 178.919C48.7382 178.889 48.8169 178.873 48.8993 178.873C49.2553 178.873 49.5439 179.18 49.5439 179.559V183.053C49.5495 183.344 49.3804 183.618 49.1083 183.717L48.8989 183.067Z" fill="#BDBDBD"/>
<path d="M28.1782 151.31C27.9135 151.215 27.5535 151.542 27.3743 152.042C27.195 152.541 27.2644 153.023 27.5292 153.118L46.9302 160.082C47.195 160.177 47.5549 159.85 47.7342 159.35C47.9134 158.851 47.8441 158.369 47.5793 158.274L28.1782 151.31Z" fill="#BDBDBD"/>
<path d="M111.047 117.555C110.817 117.142 110.68 116.684 110.646 116.213C110.612 115.743 110.682 115.27 110.85 114.829C111.019 114.388 111.282 113.989 111.621 113.66C111.961 113.332 112.368 113.082 112.814 112.928L112.833 101.45L117.807 104.742L117.026 115.137C117.235 115.904 117.156 116.721 116.803 117.433C116.45 118.145 115.847 118.703 115.11 119.001C114.373 119.299 113.553 119.317 112.804 119.05C112.055 118.783 111.43 118.251 111.047 117.555Z" fill="#9E616A"/>
<path d="M111.507 66.7696L113.729 64.6279L115.361 65.8061C115.361 65.8061 116.967 67.7332 118.252 73.5147C119.537 79.2961 118.252 111.094 118.252 111.094L111.186 110.131L112.149 93.4286L109.258 79.2961L111.507 66.7696Z" fill="#BDBDBD"/>
<path d="M164.209 112.4L177.473 116.653L177.341 117.051L177.475 116.653C177.699 116.725 177.822 116.962 177.748 117.182C177.701 117.322 177.585 117.422 177.449 117.456L164.184 121.71L164.184 121.711C164.085 121.743 163.982 121.737 163.892 121.702L150.628 117.449L150.76 117.051L150.627 117.449C150.402 117.377 150.279 117.14 150.353 116.921C150.4 116.78 150.516 116.68 150.652 116.646L163.917 112.392L163.917 112.392C164.016 112.36 164.119 112.365 164.209 112.4V112.4ZM175.968 117.051L164.05 113.229L152.132 117.051L164.05 120.873L175.968 117.051Z" fill="#BDBDBD" stroke="#BDBDBD"/>
<path d="M150.899 133.698C150.675 133.621 150.431 133.741 150.355 133.968C150.278 134.195 150.397 134.442 150.621 134.519L163.912 139.139V139.139C164.011 139.173 164.113 139.169 164.204 139.134L177.48 134.52C177.704 134.442 177.823 134.195 177.746 133.968C177.67 133.742 177.426 133.621 177.202 133.699L164.051 138.27L150.9 133.699L150.899 133.698Z" fill="#BDBDBD" stroke="#BDBDBD"/>
<path d="M177.769 116.998C177.769 116.76 177.552 116.567 177.284 116.567C177.017 116.567 176.8 116.76 176.8 116.998V134.214C176.8 134.452 177.017 134.644 177.284 134.644C177.552 134.644 177.769 134.452 177.769 134.214V116.998Z" fill="#BDBDBD" stroke="#BDBDBD"/>
<path d="M150.721 117.082C150.721 116.854 150.528 116.67 150.289 116.67C150.051 116.67 149.857 116.854 149.857 117.082V133.531C149.857 133.758 150.051 133.942 150.289 133.942C150.528 133.942 150.721 133.758 150.721 133.531V117.082Z" fill="#BDBDBD" stroke="#BDBDBD"/>
<path d="M164.535 121.513C164.535 121.277 164.318 121.087 164.051 121.087C163.783 121.087 163.566 121.277 163.566 121.513V138.738C163.566 138.973 163.783 139.164 164.051 139.164C164.318 139.164 164.535 138.973 164.535 138.738V121.513Z" fill="#BDBDBD" stroke="#BDBDBD"/>
<path d="M168.715 119.58L172.716 118.205L172.716 118.205C172.93 118.131 173.161 118.253 173.231 118.478C173.245 118.525 173.252 118.572 173.251 118.619V122.74C173.251 122.939 173.121 123.106 172.946 123.154L168.95 124.615L168.951 124.616C168.738 124.694 168.505 124.577 168.431 124.353C168.414 124.304 168.407 124.253 168.408 124.204V119.995C168.408 119.795 168.538 119.628 168.714 119.581L168.715 119.58ZM172.435 119.2L169.225 120.304V123.611L172.435 122.437V119.2Z" fill="#BDBDBD"/>
<path d="M166.306 135.552L169.541 134.369V133.087L166.306 134.27V135.552ZM169.943 134.675L170.073 135.08L166.05 136.551C166.004 136.569 165.955 136.58 165.904 136.58C165.682 136.58 165.502 136.388 165.502 136.151V133.973C165.499 133.792 165.604 133.621 165.774 133.559L165.904 133.964L165.774 133.559L169.797 132.089C169.842 132.07 169.891 132.06 169.943 132.06C170.165 132.06 170.345 132.251 170.345 132.488V134.666C170.348 134.847 170.243 135.018 170.073 135.08L169.943 134.675Z" fill="#BDBDBD"/>
<path d="M157.023 114.874C156.858 114.815 156.634 115.019 156.522 115.331C156.41 115.642 156.453 115.943 156.618 116.002L168.715 120.344C168.88 120.404 169.105 120.199 169.216 119.888C169.328 119.576 169.285 119.276 169.12 119.217L157.023 114.874Z" fill="#BDBDBD"/>
</svg>
