<svg width="28" height="16" viewBox="0 0 28 16" fill="none" xmlns="http://www.w3.org/2000/svg">
<ellipse cx="13.6216" cy="8.32431" rx="3.78378" ry="3.78378" fill="#F52424"/>
<mask id="path-2-inside-1_35_82548" fill="white">
<path d="M22.4707 1.45928C22.668 0.929443 23.2617 0.654228 23.7618 0.918056C24.8406 1.48721 25.7782 2.29944 26.4973 3.29593C27.417 4.57029 27.9382 6.08874 27.9949 7.65928C28.0516 9.22982 27.6413 10.7819 26.8159 12.1192C26.1704 13.165 25.2939 14.0427 24.2589 14.6882C23.7791 14.9874 23.1672 14.7557 22.9321 14.2415C22.697 13.7273 22.9302 13.1266 23.396 12.8063C24.0686 12.3439 24.6409 11.7447 25.0735 11.0439C25.6862 10.0511 25.9908 8.89899 25.9487 7.73315C25.9066 6.56731 25.5197 5.44014 24.837 4.49416C24.3551 3.82635 23.741 3.27002 23.0369 2.8573C22.5491 2.57137 22.2733 1.98912 22.4707 1.45928Z"/>
</mask>
<path d="M22.4707 1.45928C22.668 0.929443 23.2617 0.654228 23.7618 0.918056C24.8406 1.48721 25.7782 2.29944 26.4973 3.29593C27.417 4.57029 27.9382 6.08874 27.9949 7.65928C28.0516 9.22982 27.6413 10.7819 26.8159 12.1192C26.1704 13.165 25.2939 14.0427 24.2589 14.6882C23.7791 14.9874 23.1672 14.7557 22.9321 14.2415C22.697 13.7273 22.9302 13.1266 23.396 12.8063C24.0686 12.3439 24.6409 11.7447 25.0735 11.0439C25.6862 10.0511 25.9908 8.89899 25.9487 7.73315C25.9066 6.56731 25.5197 5.44014 24.837 4.49416C24.3551 3.82635 23.741 3.27002 23.0369 2.8573C22.5491 2.57137 22.2733 1.98912 22.4707 1.45928Z" stroke="#F52424" stroke-width="10" mask="url(#path-2-inside-1_35_82548)"/>
<mask id="path-3-inside-2_35_82548" fill="white">
<path d="M5.52934 1.45928C5.33196 0.929443 4.7383 0.654228 4.23822 0.918056C3.1594 1.48721 2.22181 2.29944 1.50265 3.29593C0.582966 4.57029 0.0618229 6.08874 0.005126 7.65928C-0.0515709 9.22982 0.358723 10.7819 1.18412 12.1192C1.82955 13.165 2.70613 14.0427 3.74111 14.6882C4.22086 14.9874 4.83282 14.7557 5.0679 14.2415C5.30297 13.7273 5.06985 13.1266 4.60395 12.8063C3.93145 12.3439 3.35906 11.7447 2.92651 11.0439C2.3138 10.0511 2.00924 8.89899 2.05132 7.73315C2.09341 6.56731 2.48026 5.44014 3.16296 4.49416C3.64491 3.82635 4.25902 3.27002 4.96312 2.8573C5.4509 2.57137 5.72673 1.98912 5.52934 1.45928Z"/>
</mask>
<path d="M5.52934 1.45928C5.33196 0.929443 4.7383 0.654228 4.23822 0.918056C3.1594 1.48721 2.22181 2.29944 1.50265 3.29593C0.582966 4.57029 0.0618229 6.08874 0.005126 7.65928C-0.0515709 9.22982 0.358723 10.7819 1.18412 12.1192C1.82955 13.165 2.70613 14.0427 3.74111 14.6882C4.22086 14.9874 4.83282 14.7557 5.0679 14.2415C5.30297 13.7273 5.06985 13.1266 4.60395 12.8063C3.93145 12.3439 3.35906 11.7447 2.92651 11.0439C2.3138 10.0511 2.00924 8.89899 2.05132 7.73315C2.09341 6.56731 2.48026 5.44014 3.16296 4.49416C3.64491 3.82635 4.25902 3.27002 4.96312 2.8573C5.4509 2.57137 5.72673 1.98912 5.52934 1.45928Z" stroke="#F52424" stroke-width="10" mask="url(#path-3-inside-2_35_82548)"/>
<mask id="path-4-inside-3_35_82548" fill="white">
<path d="M19.0057 3.34378C19.1414 2.95358 19.5786 2.75183 19.9356 2.95976C20.6303 3.3644 21.2345 3.93229 21.701 4.62475C22.3141 5.535 22.6615 6.61961 22.6993 7.74142C22.7371 8.86323 22.4636 9.97186 21.9133 10.9271C21.4946 11.654 20.93 12.2672 20.2641 12.7245C19.9232 12.9586 19.4716 12.7887 19.3093 12.4083C19.1586 12.055 19.316 11.6505 19.6259 11.4234C20.0775 11.0924 20.4617 10.6624 20.7517 10.159C21.1602 9.44988 21.3632 8.62693 21.3352 7.79419C21.3071 6.96144 21.0492 6.15632 20.5941 5.48062C20.273 5.00388 19.8638 4.60668 19.3948 4.31193C19.0666 4.10573 18.8785 3.70983 19.0057 3.34378Z"/>
</mask>
<path d="M19.0057 3.34378C19.1414 2.95358 19.5786 2.75183 19.9356 2.95976C20.6303 3.3644 21.2345 3.93229 21.701 4.62475C22.3141 5.535 22.6615 6.61961 22.6993 7.74142C22.7371 8.86323 22.4636 9.97186 21.9133 10.9271C21.4946 11.654 20.93 12.2672 20.2641 12.7245C19.9232 12.9586 19.4716 12.7887 19.3093 12.4083C19.1586 12.055 19.316 11.6505 19.6259 11.4234C20.0775 11.0924 20.4617 10.6624 20.7517 10.159C21.1602 9.44988 21.3632 8.62693 21.3352 7.79419C21.3071 6.96144 21.0492 6.15632 20.5941 5.48062C20.273 5.00388 19.8638 4.60668 19.3948 4.31193C19.0666 4.10573 18.8785 3.70983 19.0057 3.34378Z" stroke="#F52424" stroke-width="10" mask="url(#path-4-inside-3_35_82548)"/>
<mask id="path-5-inside-4_35_82548" fill="white">
<path d="M8.99426 3.34378C8.85859 2.95358 8.42136 2.75183 8.06439 2.95976C7.36971 3.3644 6.76547 3.93229 6.29905 4.62475C5.68593 5.535 5.3385 6.61961 5.3007 7.74142C5.2629 8.86323 5.53643 9.97186 6.0867 10.9271C6.50541 11.654 7.07003 12.2672 7.73589 12.7245C8.07681 12.9586 8.52837 12.7887 8.69068 12.4083C8.84144 12.055 8.68398 11.6505 8.37414 11.4234C7.92254 11.0924 7.53827 10.6624 7.24829 10.159C6.83982 9.44988 6.63677 8.62693 6.66483 7.79419C6.69289 6.96144 6.95079 6.15632 7.40592 5.48062C7.72705 5.00388 8.13617 4.60668 8.60524 4.31193C8.93339 4.10573 9.12154 3.70983 8.99426 3.34378Z"/>
</mask>
<path d="M8.99426 3.34378C8.85859 2.95358 8.42136 2.75183 8.06439 2.95976C7.36971 3.3644 6.76547 3.93229 6.29905 4.62475C5.68593 5.535 5.3385 6.61961 5.3007 7.74142C5.2629 8.86323 5.53643 9.97186 6.0867 10.9271C6.50541 11.654 7.07003 12.2672 7.73589 12.7245C8.07681 12.9586 8.52837 12.7887 8.69068 12.4083C8.84144 12.055 8.68398 11.6505 8.37414 11.4234C7.92254 11.0924 7.53827 10.6624 7.24829 10.159C6.83982 9.44988 6.63677 8.62693 6.66483 7.79419C6.69289 6.96144 6.95079 6.15632 7.40592 5.48062C7.72705 5.00388 8.13617 4.60668 8.60524 4.31193C8.93339 4.10573 9.12154 3.70983 8.99426 3.34378Z" stroke="#F52424" stroke-width="10" mask="url(#path-5-inside-4_35_82548)"/>
</svg>
