<svg width="17" height="21" viewBox="0 0 17 21" fill="none" xmlns="http://www.w3.org/2000/svg">
<path d="M11.6605 1.45678C11.766 1.48587 11.9223 1.54404 12.0059 1.58768C12.1114 1.63858 12.7331 2.23487 13.8603 3.35837C15.6746 5.1727 15.6855 5.18724 15.78 5.6381C15.8055 5.76172 15.8128 7.93964 15.8091 12.3282L15.7982 18.8365L15.7146 19.0365C15.5473 19.4473 15.2456 19.7491 14.8347 19.9164L14.6347 20H8.39911H2.16349L1.96352 19.9164C1.55266 19.7491 1.25088 19.4473 1.08362 19.0365L0.999998 18.8365V10.7102V2.58392L1.08362 2.38394C1.25088 1.97308 1.55266 1.6713 1.96352 1.50405L2.16349 1.42042L6.81748 1.41315C10.7443 1.40588 11.5005 1.41315 11.6605 1.45678ZM2.02896 1.95854C1.79627 2.07489 1.62538 2.24941 1.51266 2.48939L1.43631 2.65664V10.7102V18.7638L1.51266 18.931C1.62538 19.171 1.79627 19.3455 2.02896 19.4619L2.23621 19.5637H8.39911H14.562L14.7692 19.4619C15.0019 19.3455 15.1728 19.171 15.2855 18.931L15.3619 18.7638L15.3728 12.3464C15.3801 8.81589 15.3728 5.85989 15.3619 5.77626L15.3401 5.62355L13.8784 5.61264L12.4168 5.60174L12.2096 5.49993C11.9769 5.38358 11.806 5.20906 11.6933 4.96909C11.6205 4.80911 11.6169 4.73639 11.606 3.34019L11.5951 1.87855L11.5151 1.86401C11.4715 1.85673 9.36626 1.84946 6.83566 1.8531L2.23621 1.85674L2.02896 1.95854ZM12.0714 4.71457C12.1223 4.9 12.2423 5.03453 12.4132 5.11452C12.5477 5.17633 12.675 5.18361 13.8166 5.18361H15.071L13.5621 3.6747L12.0532 2.16579L12.0423 3.37292C12.035 4.1401 12.0459 4.63095 12.0714 4.71457Z" fill="#191919" stroke="#191919"/>
<path d="M3.20452 8.57595C2.79765 8.67488 2.70192 8.78338 2.70192 9.15035C2.70192 9.51733 2.79765 9.62583 3.20452 9.72475C3.45183 9.78538 3.6433 9.78857 8.44591 9.78857C13.2485 9.78857 13.44 9.78538 13.6873 9.72475C14.0942 9.62583 14.1899 9.51733 14.1899 9.15035C14.1899 8.78338 14.0942 8.67488 13.6873 8.57595C13.44 8.51532 13.2485 8.51213 8.44591 8.51213C3.6433 8.51213 3.45183 8.51532 3.20452 8.57595Z" fill="#191919"/>
<path d="M2.96253 4.74636C2.75156 4.84529 2.70192 4.95379 2.70192 5.32076C2.70192 5.68774 2.75156 5.79624 2.96253 5.89516C3.09076 5.95579 3.19004 5.95898 5.68028 5.95898C8.17053 5.95898 8.26981 5.95579 8.39804 5.89516C8.60901 5.79624 8.65865 5.68774 8.65865 5.32076C8.65865 4.95379 8.60901 4.84529 8.39804 4.74636C8.26981 4.68573 8.17053 4.68254 5.68028 4.68254C3.19004 4.68254 3.09076 4.68573 2.96253 4.74636Z" fill="#191919"/>
<path d="M3.20452 12.4051C2.79765 12.504 2.70192 12.6125 2.70192 12.9795C2.70192 13.3464 2.79765 13.4549 3.20452 13.5539C3.45183 13.6145 3.6433 13.6177 8.44591 13.6177C13.2485 13.6177 13.44 13.6145 13.6873 13.5539C14.0942 13.4549 14.1899 13.3464 14.1899 12.9795C14.1899 12.6125 14.0942 12.504 13.6873 12.4051C13.44 12.3444 13.2485 12.3412 8.44591 12.3412C3.6433 12.3412 3.45183 12.3444 3.20452 12.4051Z" fill="#191919"/>
<path d="M3.20452 16.2342C2.79765 16.3331 2.70192 16.4416 2.70192 16.8086C2.70192 17.1755 2.79765 17.284 3.20452 17.383C3.45183 17.4436 3.6433 17.4468 8.44591 17.4468C13.2485 17.4468 13.44 17.4436 13.6873 17.383C14.0942 17.284 14.1899 17.1755 14.1899 16.8086C14.1899 16.4416 14.0942 16.3331 13.6873 16.2342C13.44 16.1735 13.2485 16.1703 8.44591 16.1703C3.6433 16.1703 3.45183 16.1735 3.20452 16.2342Z" fill="#191919"/>
</svg>
